<?xml version="1.0" encoding="UTF-8" standalone="no"?>
<!-- Created with Inkscape (http://www.inkscape.org/) -->

<svg
   width="512"
   height="512"
   viewBox="0 0 512 512"
   version="1.1"
   id="svg1"
   xmlns="http://www.w3.org/2000/svg"
   xmlns:svg="http://www.w3.org/2000/svg">
  <defs
     id="defs1" />
  <g
     id="layer3"
     style="display:inline">
    <path
       id="path4"
       style="display:inline;fill:#000000;fill-opacity:1;stroke:none;stroke-width:0.54136"
       d="m 254.80469,50.449219 v 59.945311 c 6.87126,3.55151 13.19782,7.91637 18.98828,12.97852 14.13587,-10.99174 28.30121,-21.93936 42.22265,-32.820316 C 299.36834,71.647996 278.907,57.546045 254.80469,50.449219 Z m 98.3164,105.472661 c -13.12528,10.08976 -26.88443,20.68556 -40.81836,31.59765 6.27723,21.77755 9.55277,45.23079 9.69922,68.48047 -0.17137,27.20552 -4.62819,54.68923 -13.16406,79.44141 -10.94824,29.15982 -28.82826,53.13652 -54.0332,66.16406 v 59.94531 C 330.40087,439.29186 370.17102,348.11657 368.82617,256 c 0.50667,-34.7049 -4.82285,-69.27551 -15.70508,-100.07812 z" />
    <path
       id="path24"
       style="display:inline;fill:#000000;fill-opacity:1;stroke:none;stroke-width:0.54136"
       d="m 423.62891,15.777344 c -1.92044,0.0516 -4.24619,1.224363 -6.77344,3.595703 -65.9549,61.885851 -161.99015,126.989813 -233.98633,191.087893 9.54695,10.51517 20.47845,21.436 32.33398,32.51953 2.23242,2.08704 4.49736,4.17917 6.79102,6.27539 65.91073,-59.0723 151.72091,-119.83077 194.34961,-155.765626 7.06552,-5.95604 12.56055,-18.547102 12.56055,-27.789062 V 24.496094 c 0,-5.77622 -2.07466,-8.80471 -5.27539,-8.71875 z M 129.61133,263.53516 c -27.79474,32.25549 -45.417773,63.94424 -45.677736,94.5039 -0.982985,50.45022 30.905886,84.4086 83.871096,100.43555 v -52.98047 c -51.4194,-17.28292 -38.86983,-56.8007 1,-103.15039 -14.18414,-12.92217 -27.40254,-25.87164 -39.19336,-38.80859 z" />
    <path
       id="path11"
       style="display:inline;fill:#000000;fill-opacity:1;stroke:none;stroke-width:0.54136"
       d="m 167.80469,53.525391 c -52.96521,16.02696 -84.854081,49.985329 -83.871096,100.435549 0.596627,70.13575 92.645156,146.21505 189.226566,221.45508 11.09251,-11.5462 19.85963,-26.33831 26.26757,-43.36329 0.44634,-1.29705 0.88151,-2.60222 1.30469,-3.91601 C 191.7702,242.38885 74.52264,137.85952 167.80469,106.50586 Z M 357.61914,372.17773 c -7.2634,17.46488 -16.37715,33.60115 -27.32226,47.70899 31.25513,24.56363 61.14097,48.89074 86.55859,72.74023 6.73934,6.32356 12.04883,4.11891 12.04883,-5.12304 v -41.20508 c 0,-9.24196 -5.49503,-21.83302 -12.56055,-27.78906 -15.09409,-12.72392 -35.60307,-28.56045 -58.72461,-46.33204 z" />
    <path
       style="display:inline;fill:#000000;fill-opacity:1;stroke:none;stroke-width:0.540745"
       d="m 244.80469,242.54492 c -5.21545,4.48918 -10.34009,8.97837 -15.34766,13.45508 5.00758,4.47685 10.13223,8.96591 15.34766,13.45508 z"
       id="path91" />
    <path
       style="display:inline;fill:#000000;fill-opacity:1;stroke:none;stroke-width:0.540745"
       d="m 190.25586,17.5 c -6.87647,3.03e-4 -12.45087,5.574705 -12.45117,12.451172 V 201.5723 c 19.07325,-16.90279 40.61453,-34.62766 67,-55.46875 V 29.951172 C 244.80439,23.074705 239.22999,17.500303 232.35352,17.5 Z"
       id="path82" />
    <path
       style="display:inline;fill:#000000;fill-opacity:1;stroke:none;stroke-width:0.540745"
       d="m 190.25586,17.5 c -6.87647,3.03e-4 -12.45087,5.574705 -12.45117,12.451172 V 201.5723 c 19.07325,-16.90279 40.61453,-34.62766 67,-55.46875 V 29.951172 C 244.80439,23.074705 239.22999,17.500303 232.35352,17.5 Z"
       id="path97"
       transform="matrix(1,0,0,-1,0,511.99907)" />
  </g>
</svg>
